<svg xmlns="http://www.w3.org/2000/svg" width="108" height="32">
    <g fill="none">
        <path class="text" d="M36.3 26.3c-.1-.2-.2-.5-.2-.7-.6.7-1.4 1-2.7 1-3.1 0-4.9-2.3-4.9-6.2 0-3.6 1.6-6.7 5.3-6.7.6 0 1.2.2 1.7.4-.1-.6-.1-1.3-.1-2V8.8l4.1.5v12c0 3.1.1 3.9.4 4.9l-3.6.1zm-1-8.9c-.2-.3-.5-.5-.9-.5-1.1 0-1.4.8-1.4 3.6 0 1.8.2 3 1.4 3 .3 0 .7-.1.9-.4v-5.7zm23.9 8.9v-7.9c0-1.3-.4-1.3-1-1.3-.3 0-.8.2-1.4.7v8.5h-4.1v-7.8c0-1.4-.1-2.8-.4-4.1l3.8-.6c.1.4.2.8.2 1.1 1-.8 2.3-1.2 3.5-1.2 2.9 0 3.4 1.7 3.4 3.4v9.2h-4zm13.9.5c-.6-.2-1.1-.7-1.5-1.2-.9.7-2 1.1-3.1 1-3 0-4.2-1.8-4.2-4 0-2.3 2-4 5.4-4h.7v-.8c0-.7-.1-1.1-1-1.1-1.4 0-2.4.5-3.5 1.3l-1.5-2.6c1.5-.9 3.5-1.7 5.5-1.7 2.3 0 4 .8 4.4 2.2.2.6.2 1.3.2 1.9V22c0 1 .1 1.8.9 2.4l-2.3 2.4zm-2.6-5.6c-1.7 0-2.1.6-2.1 1.4-.1.6.4 1.1 1 1.2h.2c.4 0 .7-.2 1-.4v-2.2h-.1zm12.9 5.1c-.1-.2-.2-.5-.2-.7-.6.7-1.4 1-2.7 1-3.1 0-4.9-2.3-4.9-6.2 0-3.6 1.6-6.7 5.3-6.7.6 0 1.1.2 1.6.4-.1-.6-.1-1.3-.1-2V8.8l4.1.5v12c0 3.1.1 3.9.4 4.9l-3.5.1zm-1-8.9c-.2-.3-.5-.5-.9-.5-1.1 0-1.4.8-1.4 3.6 0 1.8.2 3 1.4 3 .3 0 .7-.1.9-.4v-5.7zm10.9 9.2c-3.5 0-5.7-2.3-5.7-6.4 0-3.8 2.3-6.5 5.9-6.5 3 0 5.6 1.7 5.6 6.1.1 4.9-2.9 6.8-5.8 6.8zm.1-10c-.9 0-1.3.6-1.3 3.7 0 2.4.1 3.4 1.3 3.4 1 0 1.3-1 1.3-4 0-2.4-.3-3.1-1.3-3.1zm10.9 10.1c-2.3 0-3.9-.6-3.9-3v-6.9h-1v-2.7h1c0-1 0-2 .1-3.1l4.1-.6c-.1 1.2-.2 2.4-.1 3.7h2.3l-.5 2.7h-1.7v4.9c0 1.7.2 2.1 1.3 2.1.4 0 .7-.1 1-.2l.5 2.4c-.9.4-2 .6-3.1.7zM40.2 14.1l4.1-.3 1.1 6.4c.2.9.3 1.7.6 2.5.2-1.2.5-2.6.7-3.8l.7-4.9h4.3L48 26.4c-1.4 3.6-2.8 4.4-6.7 4.7l-1.2-2.5c2.5-.6 3.9-.6 3.5-2l-3.4-12.5z"/>
        <path fill="#0C9CD8" d="M19.5 8l2.1-4.1-5 2.9c.2-1.6.5-3.7 1-6.7C6.4 6 2.5 12.1 1.2 16c-.1.1-.1.3-.1.4-.7 2.3-.5 3.8-.5 3.8.1 6.5 5.4 11.7 11.9 11.7 6.6 0 11.9-5.3 11.9-11.9V8h-4.9zm-1.1 11.9c0 3.3-2.7 6-6 6s-6-2.7-6-6 2.7-6 6-6h6v6z"/>
        <path fill="#0C9CD8" d="M9.7 19.9c0 1.6 1.3 2.8 2.8 2.8 1.6 0 2.8-1.3 2.8-2.8 0-1.6-1.3-2.8-2.8-2.8-1.6 0-2.8 1.3-2.8 2.8z"/>
    </g>
</svg>
